<svg width="174" height="66" viewBox="0 0 174 66" fill="none" xmlns="http://www.w3.org/2000/svg">
<path d="M141.794 48.4923C141.519 48.2389 141.117 47.9999 140.587 47.7752C140.058 47.5513 139.508 47.4384 138.939 47.4384C138.292 47.4384 137.737 47.5657 137.277 47.8191C136.816 48.0729 136.438 48.4193 136.144 48.8582C135.85 49.2972 135.634 49.824 135.496 50.4385C135.359 51.0534 135.291 51.7119 135.291 52.4142C135.291 53.9949 135.663 55.2144 136.409 56.0732C137.154 56.9319 138.125 57.3609 139.322 57.3609C139.93 57.3609 140.445 57.3318 140.867 57.2731C141.289 57.2145 141.597 57.1558 141.794 57.0975V48.4923ZM141.794 39.3308L144.236 38.9213V58.8243C143.706 58.9807 143.03 59.1367 142.206 59.2927C141.382 59.4484 140.421 59.5266 139.322 59.5266C138.341 59.5266 137.448 59.3606 136.644 59.0294C135.839 58.6977 135.153 58.2245 134.584 57.6095C134.015 56.995 133.573 56.2484 133.26 55.3704C132.946 54.4925 132.789 53.5076 132.789 52.4142C132.789 51.3607 132.921 50.3998 133.186 49.5314C133.451 48.6635 133.838 47.9172 134.349 47.2923C134.859 46.6678 135.472 46.1798 136.188 45.829C136.904 45.4775 137.723 45.3019 138.645 45.3019C139.371 45.3019 140.008 45.39 140.558 45.5652C141.107 45.7408 141.519 45.9267 141.794 46.1215V39.3308Z" fill="white"/>
<path d="M156.801 51.3861C156.801 50.2747 156.516 49.3934 155.946 48.7432C155.376 48.0935 154.622 47.7683 153.684 47.7683C153.151 47.7683 152.668 47.8719 152.236 48.0792C151.804 48.2869 151.431 48.5594 151.119 48.8989C150.806 49.2381 150.558 49.6246 150.374 50.0577C150.19 50.4913 150.071 50.934 150.015 51.3861H156.801ZM153.712 45.7898C155.44 45.7898 156.774 46.3409 157.711 47.443C158.649 48.5455 159.118 50.218 159.118 52.4605V53.2798H149.96C150.052 54.6367 150.489 55.6683 151.27 56.3751C152.052 57.0818 153.151 57.4348 154.567 57.4348C155.376 57.4348 156.066 57.3689 156.636 57.2368C157.206 57.1053 157.638 56.9643 157.932 56.8129L158.236 58.7917C157.96 58.9424 157.463 59.1023 156.746 59.2723C156.029 59.4418 155.219 59.5266 154.319 59.5266C153.215 59.5266 152.245 59.3521 151.408 59.0037C150.571 58.6553 149.877 58.1797 149.326 57.5763C148.774 56.9732 148.36 56.2525 148.085 55.414C147.809 54.5754 147.671 53.6663 147.671 52.6863C147.671 51.5183 147.845 50.5009 148.195 49.6338C148.544 48.7675 149.004 48.0507 149.574 47.4858C150.144 46.9201 150.788 46.4962 151.505 46.2137C152.222 45.9308 152.958 45.7898 153.712 45.7898Z" fill="white"/>
<path d="M174 45.7895C173.656 46.9657 173.265 48.119 172.827 49.2494C172.387 50.3805 171.939 51.4843 171.482 52.5603C171.023 53.637 170.556 54.6634 170.079 55.6406C169.602 56.6178 169.144 57.5313 168.705 58.3816H166.559C165.662 56.6814 164.756 54.7451 163.84 52.574C162.924 50.4028 162.113 48.1416 161.408 45.7895H163.983C164.212 46.5857 164.475 47.4271 164.77 48.3133C165.066 49.1998 165.376 50.0867 165.701 50.9729C166.025 51.8595 166.354 52.7142 166.688 53.5374C167.021 54.3611 167.35 55.0981 167.675 55.7493C167.999 55.0981 168.338 54.3611 168.691 53.5374C169.044 52.7142 169.392 51.8595 169.736 50.9729C170.079 50.0867 170.408 49.1998 170.723 48.3133C171.038 47.4271 171.31 46.5857 171.539 45.7895H174Z" fill="white"/>
<path d="M3.75269 46.1712C3.83966 45.4934 4.03042 44.8296 4.32533 44.1774C4.62024 43.5277 5.01638 42.9496 5.51666 42.4392C6.01695 41.9309 6.61371 41.5224 7.30475 41.2114C7.9958 40.9004 8.76907 40.7449 9.622 40.7449C11.1225 40.7449 12.3281 41.2321 13.2417 42.2072C14.1527 43.182 14.6091 44.5025 14.6091 46.1712H3.75269ZM9.66549 37.7763C8.45954 37.7763 7.28283 37.9897 6.13535 38.4124C4.98751 38.8371 3.95807 39.4728 3.04484 40.3201C2.1338 41.1671 1.39671 42.2419 0.838682 43.5417C0.278099 44.8437 0 46.3685 0 48.1207C0 49.5901 0.219994 50.9548 0.662175 52.2125C1.10436 53.4705 1.76653 54.5499 2.64833 55.4552C3.5305 56.3601 4.6418 57.0727 5.9804 57.5974C7.31937 58.1194 8.87066 58.3816 10.6368 58.3816C12.9073 58.3816 15.2319 57.98 17.9814 56.92C18.1641 56.8494 18.2844 56.6774 18.2844 56.4882V54.102C18.2844 53.771 17.9324 53.5478 17.6141 53.6752C10.6131 56.4773 7.41219 55.0536 5.76078 53.6541C4.50915 52.5934 3.8108 51.045 3.66316 49.012H18.3158V47.6869C18.3015 44.3726 17.5524 41.8937 16.0661 40.2573C14.5657 38.6026 12.4322 37.7763 9.66549 37.7763Z" fill="#00A883"/>
<path d="M38.4446 37.7763H35.6988C35.4803 37.7763 35.2902 37.9282 35.2379 38.142C34.8942 39.5517 34.5628 40.8931 34.2439 42.1662C33.8974 43.5495 33.5509 44.9036 33.2041 46.2284C32.8576 47.5539 32.482 48.871 32.0777 50.1813C31.6731 51.492 31.2398 52.8175 30.7782 54.1564C30.1426 52.8461 29.5436 51.47 28.9804 50.0287C28.4173 48.5871 27.8896 47.1531 27.3989 45.726C26.9075 44.2996 26.4674 42.9087 26.0775 41.5546C25.7274 40.3383 25.4178 39.1987 25.1492 38.1351C25.0957 37.9232 24.9074 37.7763 24.6904 37.7763H21.781C21.4686 37.7763 21.239 38.0758 21.3212 38.3799C22.219 41.7033 23.3352 45.0327 24.6696 48.3687C26.0843 51.9068 27.6005 55.22 29.2186 58.3061C26.9498 63.1726 22.9088 62.4942 21.2243 61.8757C20.9223 61.765 20.6045 61.9893 20.6045 62.313V64.2077C20.6045 64.4008 20.7218 64.5766 20.9015 64.6435C25.5875 66.3922 29.8506 64.3484 32.2944 58.6555C33.594 55.6273 34.8139 52.3369 35.9549 48.7835C37.0356 45.4179 38.0192 41.9474 38.9059 38.3723C38.9809 38.0703 38.7534 37.7763 38.4446 37.7763Z" fill="#00A883"/>
<path d="M58.9919 40.3991C58.4857 39.9065 57.9025 39.537 57.2435 39.2906C56.5838 39.0441 55.8863 38.9211 55.1504 38.9211C53.6473 38.9211 52.236 39.4004 50.9177 40.358C50.3657 39.8654 49.6987 39.5027 48.9163 39.2698C48.1343 39.0377 47.2986 38.9211 46.4092 38.9211C44.783 38.9211 43.051 39.2358 41.2104 39.8654V57.9322C41.2104 58.1804 41.4359 58.3816 41.7144 58.3816H44.1572C44.4357 58.3816 44.6612 58.1804 44.6612 57.9322V42.0824C45.4272 41.836 46.1174 41.7129 46.731 41.7129C47.7123 41.7129 48.3716 41.9869 48.7095 42.5339C49.0466 43.0819 49.2157 43.8341 49.2157 44.7921V51.707C49.2157 51.9551 49.4412 52.1564 49.7193 52.1564H52.1625C52.4406 52.1564 52.6661 51.9551 52.6661 51.707V44.8332C52.6661 44.0673 52.5739 43.3691 52.3899 42.7392C52.727 42.384 53.0954 42.1232 53.4942 41.9591C53.8922 41.7952 54.2762 41.7129 54.6441 41.7129C55.3801 41.7129 55.9933 41.9733 56.4843 42.4927C56.9746 43.0132 57.2207 43.7658 57.2207 44.7509V57.9322C57.2207 58.1804 57.4462 58.3816 57.7242 58.3816H60.1674C60.4455 58.3816 60.671 58.1804 60.671 57.9322V44.8332C60.671 43.8477 60.5171 42.9857 60.2108 42.2466C59.9038 41.5076 59.4978 40.8917 58.9919 40.3991Z" fill="#00A883"/>
<path d="M76.6604 55.1041C76.203 55.1894 75.6247 55.2606 74.9247 55.3166C74.2247 55.374 73.4318 55.4019 72.5466 55.4019C71.061 55.4019 69.8828 55.1541 69.0114 54.6572C68.1397 54.161 67.7043 53.2736 67.7043 51.9972C67.7043 51.373 67.8612 50.855 68.1759 50.4433C68.4899 50.0324 68.8897 49.6983 69.3758 49.4428C69.8611 49.1877 70.4182 49.0108 71.0468 48.911C71.6752 48.812 72.3177 48.7619 72.9755 48.7619C73.689 48.7619 74.3681 48.8046 75.0106 48.8895C75.6535 48.9748 76.203 49.0883 76.6604 49.2303V55.1041ZM78.4173 39.7809C77.7886 39.1286 76.9669 38.6179 75.9533 38.2486C74.1594 37.5952 69.4073 37.5222 66.4672 38.6577C66.2845 38.7286 66.1621 38.9002 66.1621 39.0951V41.07C66.1621 41.3749 66.453 41.5966 66.7503 41.5201C72.7836 39.9663 75.0397 41.2744 75.739 42.1647C76.0959 42.6189 76.3389 43.1222 76.4677 43.6755C76.5961 44.2288 76.6604 44.8032 76.6604 45.3995V46.3782C75.3175 46.0666 73.9462 45.9102 72.5466 45.9102C71.5184 45.9102 70.4966 46.0166 69.4826 46.2295C68.4686 46.4423 67.5688 46.7902 66.7833 47.2723C65.9971 47.7551 65.3546 48.3863 64.855 49.1662C64.3551 49.9471 64.105 50.905 64.105 52.0394C64.105 53.3163 64.3477 54.3665 64.8337 55.1894C65.3191 56.0126 65.962 56.6579 66.7617 57.1259C67.5614 57.5943 68.476 57.9199 69.5046 58.1046C70.5328 58.2889 71.5893 58.3816 72.6753 58.3816C74.1034 58.3816 75.4963 58.2819 76.8534 58.0834C78.2097 57.8854 79.3025 57.7152 80.1313 57.5728V45.2293C80.1313 44.1223 80.0029 43.101 79.7456 42.1647C79.4884 41.2283 79.0453 40.4339 78.4173 39.7809Z" fill="#00A883"/>
<path d="M101.493 37.9711C99.507 37.6546 93.6281 37.398 89.6776 39.9691C88.3531 39.1069 86.8137 38.5609 85.2744 38.2316C84.9841 38.1692 84.7104 38.391 84.7104 38.6881V41.4207C84.7104 41.6287 84.8476 41.8137 85.0482 41.8687C86.2066 42.1849 87.2095 42.6597 87.8184 43.3418V58.3805H88.0527V58.3816L88.0531 58.3805H91.3021V43.6453C92.8823 41.2589 98.8879 41.0922 101.337 41.5074C101.622 41.5557 101.882 41.3379 101.882 41.0485V38.4308C101.882 38.2031 101.718 38.0067 101.493 37.9711Z" fill="#00A883"/>
<path d="M116.533 54.8634C116.239 54.9483 115.775 55.0329 115.143 55.1178C114.51 55.2024 113.738 55.2449 112.826 55.2449C111.03 55.2449 109.574 54.6237 108.456 53.3799C107.337 52.1369 106.778 50.3706 106.778 48.0817C106.778 47.0644 106.881 46.1108 107.087 45.2205C107.293 44.3302 107.617 43.5675 108.058 42.9316C108.5 42.2957 109.066 41.7946 109.758 41.4271C110.449 41.0601 111.281 40.8758 112.252 40.8758C113.105 40.8758 113.929 41.039 114.724 41.3633C115.518 41.6886 116.121 42.035 116.533 42.4021V54.8634ZM119.714 29.7632H117.017C116.75 29.7632 116.533 29.9709 116.533 30.2271V38.9684C116.121 38.6863 115.503 38.4174 114.68 38.1634C113.855 37.9089 112.899 37.7819 111.81 37.7819C110.427 37.7819 109.199 38.036 108.125 38.5448C107.05 39.0534 106.13 39.7602 105.366 40.6642C104.6 41.5686 104.019 42.6495 103.622 43.9066C103.225 45.1643 103.026 46.5555 103.026 48.0817C103.026 49.6645 103.261 51.0907 103.732 52.3626C104.203 53.6344 104.865 54.7149 105.719 55.6053C106.572 56.4953 107.602 57.1807 108.809 57.6608C110.015 58.1408 111.354 58.3816 112.826 58.3816C114.473 58.3816 115.915 58.2682 117.151 58.0422C118.388 57.8166 119.403 57.5906 120.197 57.3642V30.2271C120.197 29.9709 119.981 29.7632 119.714 29.7632Z" fill="#00A883"/>
<path d="M25.7722 10.7477C26.746 9.4618 28.0617 8.81835 29.7187 8.81835C31.4045 8.81835 32.7423 9.4618 33.7309 10.7477C34.7188 12.0342 35.2135 13.7936 35.2135 16.0262C35.2135 18.2307 34.7188 19.9765 33.7309 21.262C32.7423 22.5485 31.4045 23.1913 29.7187 23.1913C28.0617 23.1913 26.746 22.5485 25.7722 21.262C24.798 19.9765 24.3113 18.2307 24.3113 16.0262C24.3113 13.7936 24.798 12.0342 25.7722 10.7477ZM26.0776 25.5868C27.1962 26.081 28.4105 26.3289 29.7187 26.3289C31.0558 26.3289 32.2917 26.081 33.4258 25.5868C34.5596 25.0925 35.5331 24.3929 36.3476 23.4879C37.1611 22.584 37.7934 21.5028 38.2444 20.2447C38.695 18.9872 38.9203 17.581 38.9203 16.0262C38.9203 14.4718 38.695 13.0582 38.2444 11.7864C37.7934 10.5146 37.1611 9.43337 36.3476 8.54278C35.5331 7.65255 34.5596 6.9603 33.4258 6.46569C32.2917 5.97143 31.0558 5.72359 29.7187 5.72359C28.4105 5.72359 27.1962 5.97143 26.0776 6.46569C24.9579 6.9603 23.991 7.65255 23.1775 8.54278C22.3633 9.43337 21.7307 10.5146 21.2804 11.7864C20.8294 13.0582 20.6045 14.4718 20.6045 16.0262C20.6045 17.581 20.8294 18.9872 21.2804 20.2447C21.7307 21.5028 22.3633 22.584 23.1775 23.4879C23.991 24.3929 24.9579 25.0925 26.0776 25.5868Z" fill="#00A883"/>
<path d="M66.6676 16.0262C66.6676 13.7936 67.1544 12.0342 68.1285 10.7477C69.1023 9.4618 70.418 8.81835 72.075 8.81835C73.7608 8.81835 75.0985 9.4618 76.0871 10.7477C77.075 12.0342 77.57 13.7936 77.57 16.0262C77.57 18.2307 77.075 19.9765 76.0871 21.2623C75.0985 22.5485 73.7608 23.1913 72.075 23.1913C70.418 23.1913 69.1023 22.5485 68.1285 21.2623C67.1544 19.9765 66.6676 18.2307 66.6676 16.0262ZM72.075 26.3289C73.412 26.3289 74.6479 26.081 75.782 25.5868C76.9158 25.0925 77.8892 24.3929 78.7038 23.4879C79.5173 22.584 80.1495 21.5028 80.6008 20.2447C81.0511 18.9872 81.2767 17.581 81.2767 16.0262C81.2767 14.4718 81.0511 13.0582 80.6008 11.7864C80.1495 10.5146 79.5173 9.43337 78.7038 8.54278C77.8892 7.6529 76.9158 6.9603 75.782 6.46569C74.6479 5.97143 73.412 5.72359 72.075 5.72359C70.7668 5.72359 69.5526 5.97143 68.4336 6.46569C67.3143 6.9603 66.3474 7.6529 65.5339 8.54278C64.7197 9.43337 64.0871 10.5146 63.6369 11.7864C63.1859 13.0582 62.9609 14.4718 62.9609 16.0262C62.9609 17.581 63.1859 18.9872 63.6369 20.2447C64.0871 21.5028 64.7197 22.584 65.5339 23.4879C66.3474 24.3929 67.3143 25.0925 68.4336 25.5868C69.5526 26.081 70.7668 26.3289 72.075 26.3289Z" fill="#00A883"/>
<path d="M47.2796 18.3906C47.5712 17.9797 47.9425 17.6456 48.3938 17.3901C48.8445 17.1349 49.3617 16.958 49.9455 16.8583C50.5287 16.7593 51.1253 16.7092 51.7361 16.7092C52.3989 16.7092 53.0292 16.7519 53.6261 16.8371C54.2231 16.9221 54.7334 17.0359 55.1581 17.1776V23.0514C54.7334 23.1366 54.1964 23.2078 53.5464 23.2639C52.8964 23.3213 52.1601 23.3492 51.3381 23.3492C49.9587 23.3492 48.8643 23.1014 48.0555 22.6045C47.246 22.1083 46.8418 21.2212 46.8418 19.9444C46.8418 19.3203 46.9874 18.8022 47.2796 18.3906ZM45.9664 25.0732C46.709 25.5416 47.558 25.8672 48.5131 26.0519C49.4678 26.2365 50.4493 26.3289 51.4574 26.3289C52.7834 26.3289 54.0768 26.2291 55.3373 26.0307C56.5965 25.8327 57.6115 25.6624 58.3811 25.5201V13.1766C58.3811 12.0696 58.2615 11.0483 58.023 10.1119C57.7841 9.17554 57.3726 8.38154 56.7892 7.72816C56.2057 7.07583 55.4427 6.56517 54.5015 6.19584C52.8355 5.54245 48.4231 5.4695 45.6927 6.60499C45.5233 6.67583 45.4097 6.84746 45.4097 7.04235V9.01731C45.4097 9.32215 45.6798 9.54382 45.9556 9.46734C51.5582 7.91353 53.6532 9.22171 54.3025 10.1119C54.6339 10.5662 54.8596 11.0694 54.9789 11.6227C55.0985 12.176 55.1581 12.7508 55.1581 13.3468V14.3254C53.9108 14.0139 52.6378 13.8574 51.3381 13.8574C50.3834 13.8574 49.4346 13.9639 48.493 14.1767C47.5511 14.3896 46.7159 14.7374 45.9862 15.2195C45.2565 15.7024 44.6595 16.3335 44.196 17.1134C43.7314 17.8944 43.4995 18.8523 43.4995 19.9867C43.4995 21.2635 43.7245 22.3137 44.1759 23.1366C44.6269 23.9599 45.2235 24.6052 45.9664 25.0732Z" fill="#00A883"/>
<path d="M2.56843 31.9547C4.63585 32.8807 6.90052 33.1975 8.76409 33.1975C13.4859 33.1975 14.9139 30.3946 15.4283 29.1457C15.8268 28.178 16.0259 27.0008 16.0259 25.6141V5.72382H4.55519C4.28719 5.72382 4.07014 5.93623 4.07014 6.1985V8.23931C4.07014 8.50158 4.28719 8.71399 4.55519 8.71399H12.3948V25.6575C12.3948 27.3618 12.0088 28.5103 11.2436 29.1023C9.16921 30.7082 4.70185 29.5831 2.9171 29.0366C2.60473 28.9408 2.28906 29.1694 2.28906 29.4898V31.523C2.28906 31.7075 2.39722 31.8779 2.56843 31.9547Z" fill="#00A883"/>
<path d="M13.05 3.43433H15.5684C15.8215 3.43433 16.0265 3.22934 16.0265 2.97657V0.457872C16.0265 0.205102 15.8215 0.000115395 15.5684 0.000115395H13.05C12.7973 0.000115395 12.5923 0.205102 12.5923 0.457872V2.97657C12.5923 3.22934 12.7973 3.43433 13.05 3.43433Z" fill="#00A883"/>
<path d="M127.65 54.9477C127.12 54.9477 126.699 55.1773 126.388 55.6359C126.076 56.0949 125.921 56.6339 125.921 57.2521C125.921 57.8504 126.076 58.3794 126.388 58.838C126.699 59.2969 127.12 59.5266 127.65 59.5266C128.164 59.5266 128.576 59.2969 128.888 58.838C129.2 58.3794 129.355 57.8504 129.355 57.2521C129.355 56.6339 129.2 56.0949 128.888 55.6359C128.576 55.1773 128.164 54.9477 127.65 54.9477Z" fill="white"/>
</svg>
